<svg width="132" height="93" viewBox="0 0 132 93" fill="none" xmlns="http://www.w3.org/2000/svg">
<path d="M7.07812 1.875V36H0.046875V1.875H7.07812ZM27.5156 1.875L13.9922 18.7266L6.1875 27.1172L4.92188 20.4609L10.1953 13.2422L18.8906 1.875H27.5156ZM19.5234 36L9.46875 20.2266L14.6719 15.8672L27.8438 36H19.5234Z" fill="black"/>
<path d="M36.7266 0V36H29.9766V0H36.7266ZM35.7656 22.4297H33.9141C33.9297 20.6641 34.1641 19.0391 34.6172 17.5547C35.0703 16.0547 35.7188 14.7578 36.5625 13.6641C37.4062 12.5547 38.4141 11.6953 39.5859 11.0859C40.7734 10.4766 42.0859 10.1719 43.5234 10.1719C44.7734 10.1719 45.9062 10.3516 46.9219 10.7109C47.9531 11.0547 48.8359 11.6172 49.5703 12.3984C50.3203 13.1641 50.8984 14.1719 51.3047 15.4219C51.7109 16.6719 51.9141 18.1875 51.9141 19.9688V36H45.1172V19.9219C45.1172 18.7969 44.9531 17.9141 44.625 17.2734C44.3125 16.6172 43.8516 16.1562 43.2422 15.8906C42.6484 15.6094 41.9141 15.4688 41.0391 15.4688C40.0703 15.4688 39.2422 15.6484 38.5547 16.0078C37.8828 16.3672 37.3438 16.8672 36.9375 17.5078C36.5312 18.1328 36.2344 18.8672 36.0469 19.7109C35.8594 20.5547 35.7656 21.4609 35.7656 22.4297Z" fill="black"/>
<path d="M70.7344 30.2812V18.9844C70.7344 18.1719 70.6016 17.4766 70.3359 16.8984C70.0703 16.3047 69.6562 15.8438 69.0938 15.5156C68.5469 15.1875 67.8359 15.0234 66.9609 15.0234C66.2109 15.0234 65.5625 15.1562 65.0156 15.4219C64.4688 15.6719 64.0469 16.0391 63.75 16.5234C63.4531 16.9922 63.3047 17.5469 63.3047 18.1875H56.5547C56.5547 17.1094 56.8047 16.0859 57.3047 15.1172C57.8047 14.1484 58.5312 13.2969 59.4844 12.5625C60.4375 11.8125 61.5703 11.2266 62.8828 10.8047C64.2109 10.3828 65.6953 10.1719 67.3359 10.1719C69.3047 10.1719 71.0547 10.5 72.5859 11.1562C74.1172 11.8125 75.3203 12.7969 76.1953 14.1094C77.0859 15.4219 77.5312 17.0625 77.5312 19.0312V29.8828C77.5312 31.2734 77.6172 32.4141 77.7891 33.3047C77.9609 34.1797 78.2109 34.9453 78.5391 35.6016V36H71.7188C71.3906 35.3125 71.1406 34.4531 70.9688 33.4219C70.8125 32.375 70.7344 31.3281 70.7344 30.2812ZM71.625 20.5547L71.6719 24.375H67.8984C67.0078 24.375 66.2344 24.4766 65.5781 24.6797C64.9219 24.8828 64.3828 25.1719 63.9609 25.5469C63.5391 25.9062 63.2266 26.3281 63.0234 26.8125C62.8359 27.2969 62.7422 27.8281 62.7422 28.4062C62.7422 28.9844 62.875 29.5078 63.1406 29.9766C63.4062 30.4297 63.7891 30.7891 64.2891 31.0547C64.7891 31.3047 65.375 31.4297 66.0469 31.4297C67.0625 31.4297 67.9453 31.2266 68.6953 30.8203C69.4453 30.4141 70.0234 29.9141 70.4297 29.3203C70.8516 28.7266 71.0703 28.1641 71.0859 27.6328L72.8672 30.4922C72.6172 31.1328 72.2734 31.7969 71.8359 32.4844C71.4141 33.1719 70.875 33.8203 70.2188 34.4297C69.5625 35.0234 68.7734 35.5156 67.8516 35.9062C66.9297 36.2812 65.8359 36.4688 64.5703 36.4688C62.9609 36.4688 61.5 36.1484 60.1875 35.5078C58.8906 34.8516 57.8594 33.9531 57.0938 32.8125C56.3438 31.6562 55.9688 30.3438 55.9688 28.875C55.9688 27.5469 56.2188 26.3672 56.7188 25.3359C57.2188 24.3047 57.9531 23.4375 58.9219 22.7344C59.9062 22.0156 61.1328 21.4766 62.6016 21.1172C64.0703 20.7422 65.7734 20.5547 67.7109 20.5547H71.625Z" fill="black"/>
<path d="M89.3438 16.0547V36H82.5938V10.6406H88.9219L89.3438 16.0547ZM88.3594 22.4297H86.5312C86.5312 20.5547 86.7734 18.8672 87.2578 17.3672C87.7422 15.8516 88.4219 14.5625 89.2969 13.5C90.1719 12.4219 91.2109 11.6016 92.4141 11.0391C93.6328 10.4609 94.9922 10.1719 96.4922 10.1719C97.6797 10.1719 98.7656 10.3438 99.75 10.6875C100.734 11.0312 101.578 11.5781 102.281 12.3281C103 13.0781 103.547 14.0703 103.922 15.3047C104.312 16.5391 104.508 18.0469 104.508 19.8281V36H97.7109V19.8047C97.7109 18.6797 97.5547 17.8047 97.2422 17.1797C96.9297 16.5547 96.4688 16.1172 95.8594 15.8672C95.2656 15.6016 94.5312 15.4688 93.6562 15.4688C92.75 15.4688 91.9609 15.6484 91.2891 16.0078C90.6328 16.3672 90.0859 16.8672 89.6484 17.5078C89.2266 18.1328 88.9062 18.8672 88.6875 19.7109C88.4688 20.5547 88.3594 21.4609 88.3594 22.4297Z" fill="black"/>
<path d="M125.695 10.6406H131.812V35.1562C131.812 37.4688 131.297 39.4297 130.266 41.0391C129.25 42.6641 127.828 43.8906 126 44.7188C124.172 45.5625 122.047 45.9844 119.625 45.9844C118.562 45.9844 117.438 45.8438 116.25 45.5625C115.078 45.2812 113.953 44.8438 112.875 44.25C111.812 43.6562 110.922 42.9062 110.203 42L113.18 38.0156C113.961 38.9219 114.867 39.625 115.898 40.125C116.93 40.6406 118.07 40.8984 119.32 40.8984C120.539 40.8984 121.57 40.6719 122.414 40.2188C123.258 39.7812 123.906 39.1328 124.359 38.2734C124.812 37.4297 125.039 36.4062 125.039 35.2031V16.5L125.695 10.6406ZM108.633 23.625V23.1328C108.633 21.1953 108.867 19.4375 109.336 17.8594C109.82 16.2656 110.5 14.8984 111.375 13.7578C112.266 12.6172 113.344 11.7344 114.609 11.1094C115.875 10.4844 117.305 10.1719 118.898 10.1719C120.586 10.1719 122 10.4844 123.141 11.1094C124.281 11.7344 125.219 12.625 125.953 13.7812C126.688 14.9219 127.258 16.2734 127.664 17.8359C128.086 19.3828 128.414 21.0781 128.648 22.9219V24C128.414 25.7656 128.062 27.4062 127.594 28.9219C127.125 30.4375 126.508 31.7656 125.742 32.9062C124.977 34.0312 124.023 34.9062 122.883 35.5312C121.758 36.1562 120.414 36.4688 118.852 36.4688C117.289 36.4688 115.875 36.1484 114.609 35.5078C113.359 34.8672 112.289 33.9688 111.398 32.8125C110.508 31.6562 109.82 30.2969 109.336 28.7344C108.867 27.1719 108.633 25.4688 108.633 23.625ZM115.383 23.1328V23.625C115.383 24.6719 115.484 25.6484 115.688 26.5547C115.891 27.4609 116.203 28.2656 116.625 28.9688C117.062 29.6562 117.602 30.1953 118.242 30.5859C118.898 30.9609 119.672 31.1484 120.562 31.1484C121.797 31.1484 122.805 30.8906 123.586 30.375C124.367 29.8438 124.953 29.1172 125.344 28.1953C125.734 27.2734 125.961 26.2109 126.023 25.0078V21.9375C125.992 20.9531 125.859 20.0703 125.625 19.2891C125.391 18.4922 125.062 17.8125 124.641 17.25C124.219 16.6875 123.672 16.25 123 15.9375C122.328 15.625 121.531 15.4688 120.609 15.4688C119.719 15.4688 118.945 15.6719 118.289 16.0781C117.648 16.4688 117.109 17.0078 116.672 17.6953C116.25 18.3828 115.93 19.1953 115.711 20.1328C115.492 21.0547 115.383 22.0547 115.383 23.1328Z" fill="black"/>
<path d="M27.1641 57.875H33.1172L41.8828 82.9297L50.6484 57.875H56.6016L44.2734 92H39.4922L27.1641 57.875ZM23.9531 57.875H29.8828L30.9609 82.2969V92H23.9531V57.875ZM53.8828 57.875H59.8359V92H52.8047V82.2969L53.8828 57.875Z" fill="black"/>
<path d="M64.5 79.5781V79.0859C64.5 77.2266 64.7656 75.5156 65.2969 73.9531C65.8281 72.375 66.6016 71.0078 67.6172 69.8516C68.6328 68.6953 69.8828 67.7969 71.3672 67.1562C72.8516 66.5 74.5547 66.1719 76.4766 66.1719C78.3984 66.1719 80.1094 66.5 81.6094 67.1562C83.1094 67.7969 84.3672 68.6953 85.3828 69.8516C86.4141 71.0078 87.1953 72.375 87.7266 73.9531C88.2578 75.5156 88.5234 77.2266 88.5234 79.0859V79.5781C88.5234 81.4219 88.2578 83.1328 87.7266 84.7109C87.1953 86.2734 86.4141 87.6406 85.3828 88.8125C84.3672 89.9688 83.1172 90.8672 81.6328 91.5078C80.1484 92.1484 78.4453 92.4688 76.5234 92.4688C74.6016 92.4688 72.8906 92.1484 71.3906 91.5078C69.9062 90.8672 68.6484 89.9688 67.6172 88.8125C66.6016 87.6406 65.8281 86.2734 65.2969 84.7109C64.7656 83.1328 64.5 81.4219 64.5 79.5781ZM71.25 79.0859V79.5781C71.25 80.6406 71.3438 81.6328 71.5312 82.5547C71.7188 83.4766 72.0156 84.2891 72.4219 84.9922C72.8438 85.6797 73.3906 86.2188 74.0625 86.6094C74.7344 87 75.5547 87.1953 76.5234 87.1953C77.4609 87.1953 78.2656 87 78.9375 86.6094C79.6094 86.2188 80.1484 85.6797 80.5547 84.9922C80.9609 84.2891 81.2578 83.4766 81.4453 82.5547C81.6484 81.6328 81.75 80.6406 81.75 79.5781V79.0859C81.75 78.0547 81.6484 77.0859 81.4453 76.1797C81.2578 75.2578 80.9531 74.4453 80.5312 73.7422C80.125 73.0234 79.5859 72.4609 78.9141 72.0547C78.2422 71.6484 77.4297 71.4453 76.4766 71.4453C75.5234 71.4453 74.7109 71.6484 74.0391 72.0547C73.3828 72.4609 72.8438 73.0234 72.4219 73.7422C72.0156 74.4453 71.7188 75.2578 71.5312 76.1797C71.3438 77.0859 71.25 78.0547 71.25 79.0859Z" fill="black"/>
<path d="M99.4219 72.1719V92H92.6719V66.6406H99.0234L99.4219 72.1719ZM107.062 66.4766L106.945 72.7344C106.617 72.6875 106.219 72.6484 105.75 72.6172C105.297 72.5703 104.883 72.5469 104.508 72.5469C103.555 72.5469 102.727 72.6719 102.023 72.9219C101.336 73.1562 100.758 73.5078 100.289 73.9766C99.8359 74.4453 99.4922 75.0156 99.2578 75.6875C99.0391 76.3594 98.9141 77.125 98.8828 77.9844L97.5234 77.5625C97.5234 75.9219 97.6875 74.4141 98.0156 73.0391C98.3438 71.6484 98.8203 70.4375 99.4453 69.4062C100.086 68.375 100.867 67.5781 101.789 67.0156C102.711 66.4531 103.766 66.1719 104.953 66.1719C105.328 66.1719 105.711 66.2031 106.102 66.2656C106.492 66.3125 106.812 66.3828 107.062 66.4766Z" fill="black"/>
</svg>
